# Blender v2.76 (sub 0) OBJ File: ''
# www.blender.org
mtllib blue_bin.mtl
o blue_bin_Cube
v 0.136567 0.182180 -0.184595
v 0.125000 -0.152616 -0.172904
v -0.125000 -0.152616 -0.172904
v -0.136567 0.182180 -0.184595
v 0.136567 0.182267 -0.182096
v -0.136567 0.182268 -0.182096
v -0.125000 -0.152528 -0.170405
v 0.125000 -0.152528 -0.170405
v 0.137095 0.182180 -0.184519
v 0.137095 0.182180 0.184519
v 0.125404 -0.152616 0.172500
v 0.125404 -0.152616 -0.172500
v 0.134596 0.182268 -0.184519
v 0.122905 -0.152528 -0.172500
v 0.122905 -0.152528 0.172500
v 0.134596 0.182267 0.184519
v -0.125404 -0.152616 -0.172500
v -0.125404 -0.152616 0.172500
v -0.137095 0.182180 0.184332
v -0.137095 0.182180 -0.184332
v -0.122905 -0.152528 -0.172500
v -0.134596 0.182268 -0.184332
v -0.134596 0.182268 0.184332
v -0.122905 -0.152528 0.172500
v 0.125000 -0.138924 -0.172500
v 0.125000 -0.138924 0.172500
v -0.125000 -0.138924 0.172500
v -0.125000 -0.138924 -0.172500
v 0.125000 -0.136424 -0.172500
v -0.125000 -0.136424 -0.172500
v -0.125000 -0.136424 0.172500
v 0.125000 -0.136424 0.172500
v 0.125000 -0.152616 0.172904
v 0.134018 0.182180 0.184595
v -0.134018 0.182180 0.184595
v -0.125000 -0.152616 0.172904
v 0.125000 -0.152528 0.170405
v -0.125000 -0.152528 0.170405
v -0.134019 0.182268 0.182096
v 0.134018 0.182268 0.182097
v -0.067500 -0.137268 0.107500
v -0.067500 -0.137268 0.092500
v -0.067500 -0.167268 0.092500
v -0.067500 -0.167268 0.107500
v -0.052500 -0.137268 0.092500
v -0.052500 -0.167268 0.092500
v -0.052500 -0.137268 0.107500
v -0.052500 -0.167268 0.107500
v 0.070000 -0.142268 -0.115000
v 0.070000 -0.142268 -0.085000
v 0.073902 -0.142652 -0.085000
v 0.073902 -0.142652 -0.115000
v 0.077654 -0.143790 -0.085000
v 0.077654 -0.143790 -0.115000
v 0.081111 -0.145638 -0.085000
v 0.081111 -0.145638 -0.115000
v 0.084142 -0.148126 -0.085000
v 0.084142 -0.148126 -0.115000
v 0.086629 -0.151156 -0.085000
v 0.086629 -0.151156 -0.115000
v 0.088478 -0.154614 -0.085000
v 0.088478 -0.154614 -0.115000
v 0.089616 -0.158366 -0.085000
v 0.089616 -0.158366 -0.115000
v 0.090000 -0.162268 -0.085000
v 0.090000 -0.162268 -0.115000
v 0.089616 -0.166169 -0.085000
v 0.089616 -0.166169 -0.115000
v 0.088478 -0.169921 -0.085000
v 0.088478 -0.169921 -0.115000
v 0.086629 -0.173379 -0.085000
v 0.086629 -0.173379 -0.115000
v 0.084142 -0.176410 -0.085000
v 0.084142 -0.176410 -0.115000
v 0.081111 -0.178897 -0.085000
v 0.081111 -0.178897 -0.115000
v 0.077654 -0.180745 -0.085000
v 0.077654 -0.180745 -0.115000
v 0.073902 -0.181883 -0.085000
v 0.073902 -0.181883 -0.115000
v 0.070000 -0.182268 -0.085000
v 0.070000 -0.182268 -0.115000
v 0.066098 -0.181883 -0.085000
v 0.066098 -0.181883 -0.115000
v 0.062346 -0.180745 -0.085000
v 0.062346 -0.180745 -0.115000
v 0.058889 -0.178897 -0.085000
v 0.058889 -0.178897 -0.115000
v 0.055858 -0.176410 -0.085000
v 0.055858 -0.176410 -0.115000
v 0.053371 -0.173379 -0.085000
v 0.053371 -0.173379 -0.115000
v 0.051522 -0.169921 -0.085000
v 0.051522 -0.169921 -0.115000
v 0.050384 -0.166169 -0.085000
v 0.050384 -0.166169 -0.115000
v 0.050000 -0.162268 -0.085000
v 0.050000 -0.162268 -0.115000
v 0.050384 -0.158366 -0.085000
v 0.050384 -0.158366 -0.115000
v 0.051522 -0.154614 -0.085000
v 0.051522 -0.154614 -0.115000
v 0.053371 -0.151156 -0.085000
v 0.053371 -0.151156 -0.115000
v 0.055858 -0.148125 -0.085000
v 0.055858 -0.148126 -0.115000
v 0.058889 -0.145638 -0.085000
v 0.058889 -0.145638 -0.115000
v 0.062346 -0.143790 -0.085000
v 0.062346 -0.143790 -0.115000
v 0.066098 -0.142652 -0.085000
v 0.066098 -0.142652 -0.115000
v -0.070000 -0.142268 0.085000
v -0.070000 -0.142268 0.115000
v -0.066098 -0.142652 0.115000
v -0.066098 -0.142652 0.085000
v -0.062346 -0.143790 0.115000
v -0.062346 -0.143790 0.085000
v -0.058889 -0.145638 0.115000
v -0.058889 -0.145638 0.085000
v -0.055858 -0.148125 0.115000
v -0.055858 -0.148125 0.085000
v -0.053371 -0.151156 0.115000
v -0.053371 -0.151156 0.085000
v -0.051522 -0.154614 0.115000
v -0.051522 -0.154614 0.085000
v -0.050384 -0.158366 0.115000
v -0.050384 -0.158366 0.085000
v -0.050000 -0.162268 0.115000
v -0.050000 -0.162268 0.085000
v -0.050384 -0.166169 0.115000
v -0.050384 -0.166169 0.085000
v -0.051522 -0.169921 0.115000
v -0.051522 -0.169921 0.085000
v -0.053371 -0.173379 0.115000
v -0.053371 -0.173379 0.085000
v -0.055858 -0.176410 0.115000
v -0.055858 -0.176410 0.085000
v -0.058889 -0.178897 0.115000
v -0.058889 -0.178897 0.085000
v -0.062346 -0.180745 0.115000
v -0.062346 -0.180745 0.085000
v -0.066098 -0.181883 0.115000
v -0.066098 -0.181883 0.085000
v -0.070000 -0.182268 0.115000
v -0.070000 -0.182268 0.085000
v -0.073902 -0.181883 0.115000
v -0.073902 -0.181883 0.085000
v -0.077654 -0.180745 0.115000
v -0.077654 -0.180745 0.085000
v -0.081111 -0.178897 0.115000
v -0.081111 -0.178897 0.085000
v -0.084142 -0.176410 0.115000
v -0.084142 -0.176410 0.085000
v -0.086629 -0.173379 0.115000
v -0.086629 -0.173379 0.085000
v -0.088478 -0.169921 0.115000
v -0.088478 -0.169921 0.085000
v -0.089616 -0.166169 0.115000
v -0.089616 -0.166169 0.085000
v -0.090000 -0.162268 0.115000
v -0.090000 -0.162268 0.085000
v -0.089616 -0.158366 0.115000
v -0.089616 -0.158366 0.085000
v -0.088478 -0.154614 0.115000
v -0.088478 -0.154614 0.085000
v -0.086629 -0.151156 0.115000
v -0.086629 -0.151156 0.085000
v -0.084142 -0.148125 0.115000
v -0.084142 -0.148125 0.085000
v -0.081111 -0.145638 0.115000
v -0.081111 -0.145638 0.085000
v -0.077654 -0.143790 0.115000
v -0.077654 -0.143790 0.085000
v -0.073902 -0.142652 0.115000
v -0.073902 -0.142652 0.085000
v 0.070000 -0.142268 0.085000
v 0.070000 -0.142268 0.115000
v 0.073902 -0.142652 0.115000
v 0.073902 -0.142652 0.085000
v 0.077654 -0.143790 0.115000
v 0.077654 -0.143790 0.085000
v 0.081111 -0.145638 0.115000
v 0.081111 -0.145638 0.085000
v 0.084142 -0.148125 0.115000
v 0.084142 -0.148125 0.085000
v 0.086629 -0.151156 0.115000
v 0.086629 -0.151156 0.085000
v 0.088478 -0.154614 0.115000
v 0.088478 -0.154614 0.085000
v 0.089616 -0.158366 0.115000
v 0.089616 -0.158366 0.085000
v 0.090000 -0.162268 0.115000
v 0.090000 -0.162268 0.085000
v 0.089616 -0.166169 0.115000
v 0.089616 -0.166169 0.085000
v 0.088478 -0.169921 0.115000
v 0.088478 -0.169921 0.085000
v 0.086629 -0.173379 0.115000
v 0.086629 -0.173379 0.085000
v 0.084142 -0.176410 0.115000
v 0.084142 -0.176410 0.085000
v 0.081111 -0.178897 0.115000
v 0.081111 -0.178897 0.085000
v 0.077654 -0.180745 0.115000
v 0.077654 -0.180745 0.085000
v 0.073902 -0.181883 0.115000
v 0.073902 -0.181883 0.085000
v 0.070000 -0.182268 0.115000
v 0.070000 -0.182268 0.085000
v 0.066098 -0.181883 0.115000
v 0.066098 -0.181883 0.085000
v 0.062346 -0.180745 0.115000
v 0.062346 -0.180745 0.085000
v 0.058889 -0.178897 0.115000
v 0.058889 -0.178897 0.085000
v 0.055858 -0.176410 0.115000
v 0.055858 -0.176410 0.085000
v 0.053371 -0.173379 0.115000
v 0.053371 -0.173379 0.085000
v 0.051522 -0.169921 0.115000
v 0.051522 -0.169921 0.085000
v 0.050384 -0.166169 0.115000
v 0.050384 -0.166169 0.085000
v 0.050000 -0.162268 0.115000
v 0.050000 -0.162268 0.085000
v 0.050384 -0.158366 0.115000
v 0.050384 -0.158366 0.085000
v 0.051522 -0.154614 0.115000
v 0.051522 -0.154614 0.085000
v 0.053371 -0.151156 0.115000
v 0.053371 -0.151156 0.085000
v 0.055858 -0.148125 0.115000
v 0.055858 -0.148125 0.085000
v 0.058889 -0.145638 0.115000
v 0.058889 -0.145638 0.085000
v 0.062346 -0.143790 0.115000
v 0.062346 -0.143790 0.085000
v 0.066098 -0.142652 0.115000
v 0.066098 -0.142652 0.085000
v -0.070000 -0.142268 -0.115000
v -0.070000 -0.142268 -0.085000
v -0.066098 -0.142652 -0.085000
v -0.066098 -0.142652 -0.115000
v -0.062346 -0.143790 -0.085000
v -0.062346 -0.143790 -0.115000
v -0.058889 -0.145638 -0.085000
v -0.058889 -0.145638 -0.115000
v -0.055858 -0.148126 -0.085000
v -0.055858 -0.148126 -0.115000
v -0.053371 -0.151156 -0.085000
v -0.053371 -0.151156 -0.115000
v -0.051522 -0.154614 -0.085000
v -0.051522 -0.154614 -0.115000
v -0.050384 -0.158366 -0.085000
v -0.050384 -0.158366 -0.115000
v -0.050000 -0.162268 -0.085000
v -0.050000 -0.162268 -0.115000
v -0.050384 -0.166169 -0.085000
v -0.050384 -0.166169 -0.115000
v -0.051522 -0.169921 -0.085000
v -0.051522 -0.169921 -0.115000
v -0.053371 -0.173379 -0.085000
v -0.053371 -0.173379 -0.115000
v -0.055858 -0.176410 -0.085000
v -0.055858 -0.176410 -0.115000
v -0.058889 -0.178897 -0.085000
v -0.058889 -0.178897 -0.115000
v -0.062346 -0.180745 -0.085000
v -0.062346 -0.180745 -0.115000
v -0.066098 -0.181883 -0.085000
v -0.066098 -0.181883 -0.115000
v -0.070000 -0.182268 -0.085000
v -0.070000 -0.182268 -0.115000
v -0.073902 -0.181883 -0.085000
v -0.073902 -0.181883 -0.115000
v -0.077654 -0.180745 -0.085000
v -0.077654 -0.180745 -0.115000
v -0.081111 -0.178897 -0.085000
v -0.081111 -0.178897 -0.115000
v -0.084142 -0.176410 -0.085000
v -0.084142 -0.176410 -0.115000
v -0.086629 -0.173379 -0.085000
v -0.086629 -0.173379 -0.115000
v -0.088478 -0.169921 -0.085000
v -0.088478 -0.169921 -0.115000
v -0.089616 -0.166169 -0.085000
v -0.089616 -0.166169 -0.115000
v -0.090000 -0.162268 -0.085000
v -0.090000 -0.162268 -0.115000
v -0.089616 -0.158366 -0.085000
v -0.089616 -0.158366 -0.115000
v -0.088478 -0.154614 -0.085000
v -0.088478 -0.154614 -0.115000
v -0.086629 -0.151156 -0.085000
v -0.086629 -0.151156 -0.115000
v -0.084142 -0.148126 -0.085000
v -0.084142 -0.148126 -0.115000
v -0.081111 -0.145638 -0.085000
v -0.081111 -0.145638 -0.115000
v -0.077654 -0.143790 -0.085000
v -0.077654 -0.143790 -0.115000
v -0.073902 -0.142652 -0.085000
v -0.073902 -0.142652 -0.115000
v -0.067500 -0.137268 -0.092500
v -0.067500 -0.137268 -0.107500
v -0.067500 -0.167268 -0.107500
v -0.067500 -0.167268 -0.092500
v -0.052500 -0.137268 -0.107500
v -0.052500 -0.167268 -0.107500
v -0.052500 -0.137268 -0.092500
v -0.052500 -0.167268 -0.092500
v 0.052500 -0.137268 -0.092500
v 0.052500 -0.137268 -0.107500
v 0.052500 -0.167268 -0.107500
v 0.052500 -0.167268 -0.092500
v 0.067500 -0.137268 -0.107500
v 0.067500 -0.167268 -0.107500
v 0.067500 -0.137268 -0.092500
v 0.067500 -0.167268 -0.092500
v 0.052500 -0.137268 0.107500
v 0.052500 -0.137268 0.092500
v 0.052500 -0.167268 0.092500
v 0.052500 -0.167268 0.107500
v 0.067500 -0.137268 0.092500
v 0.067500 -0.167268 0.092500
v 0.067500 -0.137268 0.107500
v 0.067500 -0.167268 0.107500
vn -1.000000 0.000000 0.000000
vn 0.000000 0.000000 -1.000000
vn 1.000000 0.000000 0.000000
vn 0.000000 0.000000 1.000000
vn 0.000000 -1.000000 0.000000
vn 0.000000 1.000000 0.000000
vn 0.097900 0.995200 0.000000
vn 0.290200 0.957000 0.000000
vn 0.471400 0.881900 0.000000
vn 0.634500 0.772900 0.000000
vn 0.773000 0.634400 0.000000
vn 0.881900 0.471500 0.000000
vn 0.957000 0.290200 0.000000
vn 0.995200 0.097900 0.000000
vn 0.995200 -0.098000 0.000000
vn 0.957000 -0.290200 0.000000
vn 0.881900 -0.471500 0.000000
vn 0.773100 -0.634300 0.000000
vn 0.634300 -0.773100 0.000000
vn 0.471400 -0.881900 0.000000
vn 0.290200 -0.957000 0.000000
vn 0.098200 -0.995200 0.000000
vn -0.097700 -0.995200 0.000000
vn -0.290200 -0.957000 0.000000
vn -0.471400 -0.881900 0.000000
vn -0.634300 -0.773100 0.000000
vn -0.773100 -0.634300 0.000000
vn -0.881900 -0.471500 0.000000
vn -0.957000 -0.290200 0.000000
vn -0.995200 -0.098000 0.000000
vn -0.995200 0.097900 0.000000
vn -0.957000 0.290200 0.000000
vn -0.881900 0.471500 0.000000
vn -0.773000 0.634400 -0.000000
vn -0.634400 0.773000 -0.000000
vn -0.471400 0.881900 0.000000
vn -0.097900 0.995200 0.000000
vn -0.290200 0.957000 0.000000
vn 0.634300 0.773100 0.000000
vn 0.773100 0.634300 0.000000
vn 0.097700 -0.995200 -0.000000
vn -0.098200 -0.995200 0.000000
vn -0.773100 0.634300 0.000000
vn -0.634300 0.773100 0.000000
vn -0.634500 0.772900 0.000000
vn 0.000000 -0.034900 -0.999400
vn 0.000000 0.034900 0.999400
vn 0.999400 -0.034500 0.001200
vn 0.000000 -0.999400 0.035200
vn -0.999400 -0.034500 0.001200
vn 0.000000 0.999400 -0.035000
vn 0.999400 -0.034900 -0.000000
vn -0.999400 0.034900 0.000000
vn 0.035000 0.999400 0.000000
vn -0.001300 -0.035800 0.999400
vn -0.035200 -0.999400 -0.000000
vn -0.001300 -0.035800 -0.999400
vn -0.999400 -0.034900 -0.000000
vn 0.999400 0.034900 0.000000
vn 0.035200 -0.999400 -0.000000
vn 0.001200 -0.035300 0.999400
vn -0.035200 0.999400 0.000000
vn 0.001200 -0.035300 -0.999400
vn 0.000000 -0.034900 0.999400
vn 0.000000 0.034900 -0.999400
vn 0.999600 -0.026900 -0.000900
vn -0.000000 0.999400 0.035200
vn -0.999600 -0.026900 -0.000700
vn 0.000000 -0.999400 -0.035200
usemtl BLACK_MATTE
s 1
f 41//1 42//1 43//1 44//1
f 42//2 45//2 46//2 43//2
f 45//3 47//3 48//3 46//3
f 47//4 41//4 44//4 48//4
f 44//5 43//5 46//5 48//5
f 47//6 45//6 42//6 41//6
f 49//7 50//7 51//7 52//7
f 52//8 51//8 53//8 54//8
f 54//9 53//9 55//9 56//9
f 56//10 55//10 57//10 58//10
f 58//11 57//11 59//11 60//11
f 60//12 59//12 61//12 62//12
f 62//13 61//13 63//13 64//13
f 64//14 63//14 65//14 66//14
f 66//15 65//15 67//15 68//15
f 68//16 67//16 69//16 70//16
f 70//17 69//17 71//17 72//17
f 72//18 71//18 73//18 74//18
f 74//19 73//19 75//19 76//19
f 76//20 75//20 77//20 78//20
f 78//21 77//21 79//21 80//21
f 80//22 79//22 81//22 82//22
f 82//23 81//23 83//23 84//23
f 84//24 83//24 85//24 86//24
f 86//25 85//25 87//25 88//25
f 88//26 87//26 89//26 90//26
f 90//27 89//27 91//27 92//27
f 92//28 91//28 93//28 94//28
f 94//29 93//29 95//29 96//29
f 96//30 95//30 97//30 98//30
f 98//31 97//31 99//31 100//31
f 100//32 99//32 101//32 102//32
f 102//33 101//33 103//33 104//33
f 104//34 103//34 105//34 106//34
f 106//35 105//35 107//35 108//35
f 108//36 107//36 109//36 110//36
f 51//4 50//4 111//4 109//4 107//4 105//4 103//4 101//4 99//4 97//4 95//4 93//4 91//4 89//4 87//4 85//4 83//4 81//4 79//4 77//4 75//4 73//4 71//4 69//4 67//4 65//4 63//4 61//4 59//4 57//4 55//4 53//4
f 112//37 111//37 50//37 49//37
f 110//38 109//38 111//38 112//38
f 49//2 52//2 54//2 56//2 58//2 60//2 62//2 64//2 66//2 68//2 70//2 72//2 74//2 76//2 78//2 80//2 82//2 84//2 86//2 88//2 90//2 92//2 94//2 96//2 98//2 100//2 102//2 104//2 106//2 108//2 110//2 112//2
f 113//7 114//7 115//7 116//7
f 116//8 115//8 117//8 118//8
f 118//9 117//9 119//9 120//9
f 120//39 119//39 121//39 122//39
f 122//40 121//40 123//40 124//40
f 124//12 123//12 125//12 126//12
f 126//13 125//13 127//13 128//13
f 128//14 127//14 129//14 130//14
f 130//15 129//15 131//15 132//15
f 132//16 131//16 133//16 134//16
f 134//17 133//17 135//17 136//17
f 136//18 135//18 137//18 138//18
f 138//19 137//19 139//19 140//19
f 140//20 139//20 141//20 142//20
f 142//21 141//21 143//21 144//21
f 144//41 143//41 145//41 146//41
f 146//42 145//42 147//42 148//42
f 148//24 147//24 149//24 150//24
f 150//25 149//25 151//25 152//25
f 152//26 151//26 153//26 154//26
f 154//27 153//27 155//27 156//27
f 156//28 155//28 157//28 158//28
f 158//29 157//29 159//29 160//29
f 160//30 159//30 161//30 162//30
f 162//31 161//31 163//31 164//31
f 164//32 163//32 165//32 166//32
f 166//33 165//33 167//33 168//33
f 168//43 167//43 169//43 170//43
f 170//44 169//44 171//44 172//44
f 172//36 171//36 173//36 174//36
f 115//4 114//4 175//4 173//4 171//4 169//4 167//4 165//4 163//4 161//4 159//4 157//4 155//4 153//4 151//4 149//4 147//4 145//4 143//4 141//4 139//4 137//4 135//4 133//4 131//4 129//4 127//4 125//4 123//4 121//4 119//4 117//4
f 176//37 175//37 114//37 113//37
f 174//38 173//38 175//38 176//38
f 113//2 116//2 118//2 120//2 122//2 124//2 126//2 128//2 130//2 132//2 134//2 136//2 138//2 140//2 142//2 144//2 146//2 148//2 150//2 152//2 154//2 156//2 158//2 160//2 162//2 164//2 166//2 168//2 170//2 172//2 174//2 176//2
f 177//7 178//7 179//7 180//7
f 180//8 179//8 181//8 182//8
f 182//9 181//9 183//9 184//9
f 184//39 183//39 185//39 186//39
f 186//40 185//40 187//40 188//40
f 188//12 187//12 189//12 190//12
f 190//13 189//13 191//13 192//13
f 192//14 191//14 193//14 194//14
f 194//15 193//15 195//15 196//15
f 196//16 195//16 197//16 198//16
f 198//17 197//17 199//17 200//17
f 200//18 199//18 201//18 202//18
f 202//19 201//19 203//19 204//19
f 204//20 203//20 205//20 206//20
f 206//21 205//21 207//21 208//21
f 208//22 207//22 209//22 210//22
f 210//23 209//23 211//23 212//23
f 212//24 211//24 213//24 214//24
f 214//25 213//25 215//25 216//25
f 216//26 215//26 217//26 218//26
f 218//27 217//27 219//27 220//27
f 220//28 219//28 221//28 222//28
f 222//29 221//29 223//29 224//29
f 224//30 223//30 225//30 226//30
f 226//31 225//31 227//31 228//31
f 228//32 227//32 229//32 230//32
f 230//33 229//33 231//33 232//33
f 232//43 231//43 233//43 234//43
f 234//44 233//44 235//44 236//44
f 236//36 235//36 237//36 238//36
f 179//4 178//4 239//4 237//4 235//4 233//4 231//4 229//4 227//4 225//4 223//4 221//4 219//4 217//4 215//4 213//4 211//4 209//4 207//4 205//4 203//4 201//4 199//4 197//4 195//4 193//4 191//4 189//4 187//4 185//4 183//4 181//4
f 240//37 239//37 178//37 177//37
f 238//38 237//38 239//38 240//38
f 177//2 180//2 182//2 184//2 186//2 188//2 190//2 192//2 194//2 196//2 198//2 200//2 202//2 204//2 206//2 208//2 210//2 212//2 214//2 216//2 218//2 220//2 222//2 224//2 226//2 228//2 230//2 232//2 234//2 236//2 238//2 240//2
f 241//7 242//7 243//7 244//7
f 244//8 243//8 245//8 246//8
f 246//9 245//9 247//9 248//9
f 248//10 247//10 249//10 250//10
f 250//11 249//11 251//11 252//11
f 252//12 251//12 253//12 254//12
f 254//13 253//13 255//13 256//13
f 256//14 255//14 257//14 258//14
f 258//15 257//15 259//15 260//15
f 260//16 259//16 261//16 262//16
f 262//17 261//17 263//17 264//17
f 264//18 263//18 265//18 266//18
f 266//19 265//19 267//19 268//19
f 268//20 267//20 269//20 270//20
f 270//21 269//21 271//21 272//21
f 272//41 271//41 273//41 274//41
f 274//42 273//42 275//42 276//42
f 276//24 275//24 277//24 278//24
f 278//25 277//25 279//25 280//25
f 280//26 279//26 281//26 282//26
f 282//27 281//27 283//27 284//27
f 284//28 283//28 285//28 286//28
f 286//29 285//29 287//29 288//29
f 288//30 287//30 289//30 290//30
f 290//31 289//31 291//31 292//31
f 292//32 291//32 293//32 294//32
f 294//33 293//33 295//33 296//33
f 296//34 295//34 297//34 298//34
f 298//45 297//45 299//45 300//45
f 300//36 299//36 301//36 302//36
f 243//4 242//4 303//4 301//4 299//4 297//4 295//4 293//4 291//4 289//4 287//4 285//4 283//4 281//4 279//4 277//4 275//4 273//4 271//4 269//4 267//4 265//4 263//4 261//4 259//4 257//4 255//4 253//4 251//4 249//4 247//4 245//4
f 304//37 303//37 242//37 241//37
f 302//38 301//38 303//38 304//38
f 241//2 244//2 246//2 248//2 250//2 252//2 254//2 256//2 258//2 260//2 262//2 264//2 266//2 268//2 270//2 272//2 274//2 276//2 278//2 280//2 282//2 284//2 286//2 288//2 290//2 292//2 294//2 296//2 298//2 300//2 302//2 304//2
f 305//1 306//1 307//1 308//1
f 306//2 309//2 310//2 307//2
f 309//3 311//3 312//3 310//3
f 311//4 305//4 308//4 312//4
f 308//5 307//5 310//5 312//5
f 311//6 309//6 306//6 305//6
f 313//1 314//1 315//1 316//1
f 314//2 317//2 318//2 315//2
f 317//3 319//3 320//3 318//3
f 319//4 313//4 316//4 320//4
f 316//5 315//5 318//5 320//5
f 319//6 317//6 314//6 313//6
f 321//1 322//1 323//1 324//1
f 322//2 325//2 326//2 323//2
f 325//3 327//3 328//3 326//3
f 327//4 321//4 324//4 328//4
f 324//5 323//5 326//5 328//5
f 327//6 325//6 322//6 321//6
usemtl blue
f 1//46 2//46 3//46 4//46
f 5//47 6//47 7//47 8//47
f 1//48 5//48 8//48 2//48
f 2//49 8//49 7//49 3//49
f 3//50 7//50 6//50 4//50
f 5//51 1//51 4//51 6//51
f 9//52 10//52 11//52 12//52
f 13//53 14//53 15//53 16//53
f 9//54 13//54 16//54 10//54
f 10//55 16//55 15//55 11//55
f 11//56 15//56 14//56 12//56
f 13//57 9//57 12//57 14//57
f 17//58 18//58 19//58 20//58
f 21//59 22//59 23//59 24//59
f 17//60 21//60 24//60 18//60
f 18//61 24//61 23//61 19//61
f 19//62 23//62 22//62 20//62
f 21//63 17//63 20//63 22//63
f 25//5 26//5 27//5 28//5
f 29//6 30//6 31//6 32//6
f 25//3 29//3 32//3 26//3
f 26//4 32//4 31//4 27//4
f 27//1 31//1 30//1 28//1
f 29//2 25//2 28//2 30//2
f 33//64 34//64 35//64 36//64
f 37//65 38//65 39//65 40//65
f 33//66 37//66 40//66 34//66
f 34//67 40//67 39//67 35//67
f 35//68 39//68 38//68 36//68
f 37//69 33//69 36//69 38//69
