# Blender v2.76 (sub 0) OBJ File: 'door_h10_2.blend'
# www.blender.org
mtllib door_h10_2.mtl
o door_h10_2_Cube.029
v -0.343093 -1.212905 -0.038806
v -0.343093 -1.212905 0.073050
v -0.452427 -1.212905 0.073050
v -0.452427 -1.212905 -0.038806
v -0.343093 -1.135553 -0.038806
v -0.343093 -1.135553 0.073050
v -0.452427 -1.135553 0.073050
v -0.452427 -1.135553 -0.038806
v -0.343093 -0.190556 -0.038806
v -0.452427 -0.190556 -0.038806
v -0.452427 -0.190556 0.073050
v -0.343093 -0.190556 0.073050
v -0.343093 -0.109410 -0.038806
v -0.343093 -0.109410 0.073050
v -0.452427 -0.109410 0.073050
v -0.452427 -0.109410 -0.038806
v -0.343093 0.834830 -0.038806
v -0.452427 0.834830 -0.038806
v -0.452427 0.834830 0.073050
v -0.343093 0.834830 0.073050
v -0.343093 0.930729 -0.038806
v -0.343093 0.930729 0.073050
v -0.452427 0.930729 0.073050
v -0.452427 0.930729 -0.038806
v 0.348232 0.834830 0.073051
v 0.348232 0.930843 0.073051
v 0.348232 0.930843 -0.038805
v 0.348232 0.834830 -0.038805
v 0.348232 -0.190556 0.073051
v 0.348232 -0.109410 0.073051
v 0.348232 -0.109410 -0.038805
v 0.348232 -0.190556 -0.038805
v 0.348232 -1.212905 -0.038805
v 0.348232 -1.135553 -0.038805
v 0.348232 -1.212905 0.073051
v 0.348232 -1.135553 0.073051
v 0.447288 -1.212905 -0.038805
v 0.447288 -1.212905 0.073051
v 0.447288 -1.135553 -0.038805
v 0.447288 -1.135553 0.073051
v 0.447288 -0.190556 0.073051
v 0.447288 -0.190556 -0.038805
v 0.447288 -0.109410 -0.038805
v 0.447288 -0.109410 0.073051
v 0.447288 0.834830 0.073051
v 0.447288 0.834830 -0.038805
v 0.447288 0.930843 -0.038805
v 0.447288 0.930843 0.073051
v 0.447288 0.834830 -0.102734
v 0.447288 0.930843 -0.102734
v 0.348232 0.930843 -0.102734
v 0.348232 0.834830 -0.102734
v -0.343093 0.834830 -0.102735
v -0.343093 0.930729 -0.102735
v -0.452427 0.930729 -0.102735
v -0.452427 0.834830 -0.102735
vn 0.000000 -1.000000 0.000000
vn -0.000000 -0.000000 1.000000
vn -1.000000 0.000000 0.000000
vn 0.000000 0.000000 -1.000000
vn 1.000000 0.000000 0.000000
vn -0.000200 1.000000 0.000000
vn 0.000000 1.000000 0.000000
usemtl floor_lino_grey_dark.001
s off
f 1//1 2//1 3//1 4//1
f 2//2 6//2 7//2 3//2
f 3//3 7//3 8//3 4//3
f 5//4 1//4 4//4 8//4
f 5//4 8//4 10//4 9//4
f 8//3 7//3 11//3 10//3
f 7//2 6//2 12//2 11//2
f 6//5 5//5 9//5 12//5
f 11//2 12//2 14//2 15//2
f 10//3 11//3 15//3 16//3
f 9//4 10//4 16//4 13//4
f 13//4 16//4 18//4 17//4
f 16//3 15//3 19//3 18//3
f 15//2 14//2 20//2 19//2
f 14//5 13//5 17//5 20//5
f 19//2 20//2 22//2 23//2
f 18//3 19//3 23//3 24//3
f 22//2 20//2 25//2 26//2
f 21//6 22//6 26//6 27//6
f 20//1 17//1 28//1 25//1
f 14//2 12//2 29//2 30//2
f 13//7 14//7 30//7 31//7
f 9//4 13//4 31//4 32//4
f 12//1 9//1 32//1 29//1
f 1//4 5//4 34//4 33//4
f 6//2 2//2 35//2 36//2
f 5//7 6//7 36//7 34//7
f 2//1 1//1 33//1 35//1
f 35//1 33//1 37//1 38//1
f 36//2 35//2 38//2 40//2
f 33//4 34//4 39//4 37//4
f 32//4 31//4 43//4 42//4
f 30//2 29//2 41//2 44//2
f 26//2 25//2 45//2 48//2
f 37//5 39//5 40//5 38//5
f 41//5 42//5 43//5 44//5
f 45//5 46//5 47//5 48//5
f 45//2 25//2 30//2 44//2
f 46//5 45//5 44//5 43//5
f 28//4 46//4 43//4 31//4
f 25//3 28//3 31//3 30//3
f 41//2 29//2 36//2 40//2
f 42//5 41//5 40//5 39//5
f 32//4 42//4 39//4 34//4
f 29//3 32//3 34//3 36//3
f 26//7 48//7 47//7 27//7
f 21//7 24//7 23//7 22//7
f 47//5 46//5 49//5 50//5
f 27//7 47//7 50//7 51//7
f 46//1 28//1 52//1 49//1
f 28//1 17//1 53//1 52//1
f 21//6 27//6 51//6 54//6
f 24//7 21//7 54//7 55//7
f 18//3 24//3 55//3 56//3
f 17//1 18//1 56//1 53//1
f 52//4 51//4 50//4 49//4
f 53//4 54//4 51//4 52//4
f 53//4 56//4 55//4 54//4
