# Blender v2.76 (sub 0) OBJ File: 'door_h20_2.blend'
# www.blender.org
mtllib door_h20_2.mtl
o door_h20_2_Cube.009
v -0.026452 0.580476 -0.185078
v -0.026452 0.619069 -0.181277
v -0.026452 0.656179 -0.170020
v -0.026452 0.690380 -0.151739
v -0.026452 0.720357 -0.127137
v -0.026452 0.744958 -0.097160
v -0.026452 0.763239 -0.062960
v -0.026452 0.774496 -0.025850
v -0.026452 0.778297 0.012743
v -0.026452 0.774496 0.051336
v -0.026452 0.763239 0.088446
v -0.026452 0.744958 0.122646
v -0.026452 0.720357 0.152623
v -0.026452 0.690380 0.177225
v -0.026452 0.656179 0.195505
v -0.026452 0.619069 0.206763
v -0.026452 0.580476 0.210564
v -0.026452 0.541883 0.206763
v -0.026452 0.504774 0.195505
v -0.026452 0.470573 0.177225
v -0.026452 0.440596 0.152623
v -0.026452 0.415994 0.122646
v -0.026452 0.397714 0.088446
v -0.026452 0.386457 0.051336
v -0.026452 0.382656 0.012743
v -0.026452 0.386457 -0.025850
v -0.026452 0.397714 -0.062960
v -0.026452 0.415995 -0.097161
v -0.026452 0.440596 -0.127138
v -0.026452 0.470573 -0.151739
v -0.026452 0.504774 -0.170020
v -0.026452 0.541884 -0.181277
v -0.026452 0.613220 -0.151872
v -0.026452 0.580476 -0.155097
v -0.026452 0.644706 -0.142320
v -0.026452 0.673723 -0.126810
v -0.026452 0.699157 -0.105937
v -0.026452 0.720030 -0.080504
v -0.026452 0.735540 -0.051486
v -0.026452 0.745091 -0.020001
v -0.026452 0.748316 0.012743
v -0.026452 0.745091 0.045487
v -0.026452 0.735540 0.076972
v -0.026452 0.720030 0.105990
v -0.026452 0.699157 0.131423
v -0.026452 0.673723 0.152296
v -0.026452 0.644706 0.167806
v -0.026452 0.613220 0.177357
v -0.026452 0.580476 0.180582
v -0.026452 0.547732 0.177357
v -0.026452 0.516247 0.167806
v -0.026452 0.487230 0.152296
v -0.026452 0.461796 0.131423
v -0.026452 0.440923 0.105990
v -0.026452 0.425413 0.076972
v -0.026452 0.415862 0.045487
v -0.026452 0.412637 0.012743
v -0.026452 0.415862 -0.020001
v -0.026452 0.425413 -0.051487
v -0.026452 0.440923 -0.080504
v -0.026452 0.461796 -0.105938
v -0.026452 0.487230 -0.126811
v -0.026452 0.516247 -0.142321
v -0.026452 0.547733 -0.151872
v 0.026452 0.619069 -0.181277
v 0.026452 0.580476 -0.185078
v 0.026452 0.656179 -0.170020
v 0.026452 0.690380 -0.151739
v 0.026452 0.720357 -0.127137
v 0.026452 0.744958 -0.097160
v 0.026452 0.763239 -0.062960
v 0.026452 0.774496 -0.025850
v 0.026452 0.778297 0.012743
v 0.026452 0.774496 0.051336
v 0.026452 0.763239 0.088446
v 0.026452 0.744958 0.122646
v 0.026452 0.720357 0.152623
v 0.026452 0.690380 0.177225
v 0.026452 0.656179 0.195505
v 0.026452 0.619069 0.206763
v 0.026452 0.580476 0.210564
v 0.026452 0.541883 0.206763
v 0.026452 0.504774 0.195505
v 0.026452 0.470573 0.177225
v 0.026452 0.440596 0.152623
v 0.026452 0.415994 0.122646
v 0.026452 0.397714 0.088446
v 0.026452 0.386457 0.051336
v 0.026452 0.382656 0.012743
v 0.026452 0.386457 -0.025850
v 0.026452 0.397714 -0.062960
v 0.026452 0.415995 -0.097161
v 0.026452 0.440596 -0.127138
v 0.026452 0.470573 -0.151739
v 0.026452 0.504774 -0.170020
v 0.026452 0.541884 -0.181277
v 0.026452 0.613220 -0.151872
v 0.026452 0.580476 -0.155097
v 0.026452 0.644706 -0.142320
v 0.026452 0.673723 -0.126810
v 0.026452 0.699157 -0.105937
v 0.026452 0.720030 -0.080504
v 0.026452 0.735540 -0.051486
v 0.026452 0.745091 -0.020001
v 0.026452 0.748316 0.012743
v 0.026452 0.745091 0.045487
v 0.026452 0.735540 0.076972
v 0.026452 0.720030 0.105990
v 0.026452 0.699157 0.131423
v 0.026452 0.673723 0.152296
v 0.026452 0.644706 0.167806
v 0.026452 0.613220 0.177357
v 0.026452 0.580476 0.180582
v 0.026452 0.547732 0.177357
v 0.026452 0.516247 0.167806
v 0.026452 0.487230 0.152296
v 0.026452 0.461796 0.131423
v 0.026452 0.440923 0.105990
v 0.026452 0.425413 0.076972
v 0.026452 0.415862 0.045487
v 0.026452 0.412637 0.012743
v 0.026452 0.415862 -0.020001
v 0.026452 0.425413 -0.051487
v 0.026452 0.440923 -0.080504
v 0.026452 0.461796 -0.105938
v 0.026452 0.487230 -0.126811
v 0.026452 0.516247 -0.142321
v 0.026452 0.547733 -0.151872
v 0.018952 -1.020137 -0.459321
v 0.018385 -1.020137 0.459345
v -0.018953 -1.020137 0.459321
v -0.018385 -1.020137 -0.459345
v 0.018953 1.020137 -0.459321
v 0.018385 1.020137 0.459345
v -0.018953 1.020137 0.459321
v -0.018385 1.020137 -0.459345
v 0.018656 0.754815 0.019978
v -0.018681 0.754815 0.019978
v 0.018635 0.751453 0.054118
v -0.018703 0.751453 0.054118
v 0.018635 0.408178 0.054118
v -0.018703 0.408178 0.054118
v 0.018614 0.418137 0.086947
v -0.018724 0.418137 0.086947
v 0.018614 0.741494 0.086947
v -0.018724 0.741494 0.086947
v 0.018595 0.434308 0.117202
v -0.018743 0.434308 0.117202
v 0.018595 0.725323 0.117202
v -0.018743 0.725323 0.117202
v 0.018578 0.456072 0.143721
v -0.018759 0.456072 0.143721
v 0.018565 0.482591 0.165485
v -0.018773 0.482591 0.165485
v 0.018578 0.703559 0.143721
v -0.018759 0.703559 0.143721
v 0.018554 0.512846 0.181657
v -0.018783 0.512846 0.181657
v 0.018565 0.677040 0.165485
v -0.018773 0.677040 0.165485
v 0.018548 0.545675 0.191615
v -0.018789 0.545675 0.191615
v 0.018554 0.646785 0.181657
v -0.018783 0.646785 0.181657
v 0.018548 0.613956 0.191615
v -0.018789 0.613956 0.191615
v 0.018546 0.579815 0.194978
v -0.018792 0.579815 0.194978
v 0.018656 0.404815 0.019978
v -0.018681 0.404815 0.019978
v 0.018678 0.751453 -0.014163
v -0.018660 0.751453 -0.014163
v 0.018698 0.741494 -0.046992
v -0.018639 0.741494 -0.046992
v 0.018678 0.408178 -0.014163
v -0.018660 0.408178 -0.014163
v 0.018717 0.725323 -0.077247
v -0.018620 0.725323 -0.077247
v 0.018717 0.434308 -0.077247
v -0.018620 0.434308 -0.077247
v 0.018698 0.418137 -0.046992
v -0.018639 0.418137 -0.046992
v 0.018734 0.703559 -0.103766
v -0.018604 0.703559 -0.103766
v 0.018734 0.456072 -0.103766
v -0.018604 0.456072 -0.103766
v 0.018758 0.512846 -0.141701
v -0.018580 0.512846 -0.141701
v 0.018748 0.482591 -0.125530
v -0.018590 0.482591 -0.125530
v 0.018758 0.646785 -0.141701
v -0.018580 0.646785 -0.141701
v 0.018748 0.677040 -0.125529
v -0.018590 0.677040 -0.125529
v 0.018764 0.545675 -0.151660
v -0.018573 0.545675 -0.151660
v 0.018764 0.613956 -0.151660
v -0.018573 0.613956 -0.151660
v 0.018766 0.579815 -0.155022
v -0.018571 0.579816 -0.155022
vt 0.000000 0.000000
vt 1.000000 0.000000
vt 1.000000 1.000000
vt 0.000000 1.000000
vt 0.500000 1.000000
vt 0.647378 0.977786
vt 0.781660 0.913119
vt 0.890916 0.811745
vt 0.965437 0.682670
vt 0.998602 0.537365
vt 0.987464 0.388739
vt 0.933013 0.250000
vt 0.840086 0.133474
vt 0.716942 0.049516
vt 0.574521 0.005585
vt 0.425479 0.005585
vt 0.283058 0.049516
vt 0.159914 0.133474
vt 0.066987 0.250000
vt 0.012536 0.388739
vt 0.001398 0.537365
vt 0.034563 0.682670
vt 0.109084 0.811745
vt 0.218340 0.913119
vt 0.352622 0.977786
vt 0.662350 0.972909
vt 0.807106 0.894570
vt 0.918583 0.773474
vt 0.984700 0.622743
vt 0.998292 0.458710
vt 0.957887 0.299152
vt 0.867862 0.161359
vt 0.737974 0.060263
vt 0.582297 0.006819
vt 0.417703 0.006819
vt 0.262026 0.060263
vt 0.132138 0.161359
vt 0.042113 0.299152
vt 0.001708 0.458711
vt 0.015300 0.622743
vt 0.081417 0.773474
vt 0.192894 0.894571
vt 0.337651 0.972909
vt 0.295172 0.265971
vt 0.305538 0.352989
vt 0.285497 0.374127
vt 0.276701 0.300297
vt 0.035779 0.445367
vt 0.041064 0.352989
vt 0.061106 0.374127
vt 0.056622 0.452504
vt 0.408231 0.032684
vt 0.414311 0.102367
vt 0.393077 0.132948
vt 0.383204 0.068728
vt 0.555165 0.797264
vt 0.538976 0.751069
vt 0.551745 0.684624
vt 0.570215 0.718950
vt 0.434800 0.970612
vt 0.436853 0.898145
vt 0.459837 0.898145
vt 0.461890 0.970612
vt 0.373966 0.177345
vt 0.360680 0.121056
vt 0.560540 0.610794
vt 0.580582 0.631932
vt 0.482379 0.882554
vt 0.488459 0.952237
vt 0.357714 0.233852
vt 0.341525 0.187657
vt 0.565024 0.532417
vt 0.585867 0.539554
vt 0.503613 0.851973
vt 0.513486 0.916193
vt 0.344945 0.300297
vt 0.326475 0.265971
vt 0.565024 0.452504
vt 0.585867 0.445367
vt 0.336149 0.374127
vt 0.316108 0.352989
vt 0.560540 0.374127
vt 0.580582 0.352989
vt 0.331666 0.452504
vt 0.310823 0.445367
vt 0.551745 0.300297
vt 0.570215 0.265971
vt 0.331666 0.532417
vt 0.310823 0.539555
vt 0.538976 0.233852
vt 0.555165 0.187657
vt 0.336150 0.610795
vt 0.316108 0.631933
vt 0.522724 0.177345
vt 0.536010 0.121056
vt 0.344945 0.684624
vt 0.326475 0.718951
vt 0.503613 0.132948
vt 0.513486 0.068728
vt 0.357714 0.751069
vt 0.341525 0.797265
vt 0.482379 0.102367
vt 0.488459 0.032684
vt 0.373966 0.807576
vt 0.360680 0.863865
vt 0.459837 0.086776
vt 0.461890 0.014309
vt 0.393077 0.851973
vt 0.383204 0.916193
vt 0.436853 0.086776
vt 0.434800 0.014309
vt 0.522724 0.807576
vt 0.536010 0.863865
vt 0.414311 0.882555
vt 0.408231 0.952237
vt 0.085636 0.863865
vt 0.066481 0.797264
vt 0.082670 0.751069
vt 0.098922 0.807576
vt 0.289981 0.452504
vt 0.051431 0.265971
vt 0.069901 0.300297
vt 0.051431 0.718950
vt 0.069901 0.684624
vt 0.289981 0.532417
vt 0.066481 0.187657
vt 0.082670 0.233852
vt 0.041064 0.631932
vt 0.061106 0.610794
vt 0.305538 0.631932
vt 0.285497 0.610794
vt 0.085636 0.121056
vt 0.098922 0.177345
vt 0.295172 0.718950
vt 0.276701 0.684624
vt 0.108160 0.068728
vt 0.118033 0.132948
vt 0.280122 0.797264
vt 0.263932 0.751069
vt 0.133188 0.032684
vt 0.139267 0.102367
vt 0.260966 0.863865
vt 0.247680 0.807576
vt 0.159756 0.014309
vt 0.161809 0.086776
vt 0.238442 0.916193
vt 0.228570 0.851973
vt 0.186846 0.014309
vt 0.184793 0.086776
vt 0.213415 0.952237
vt 0.207335 0.882555
vt 0.213415 0.032684
vt 0.207335 0.102366
vt 0.186846 0.970612
vt 0.184793 0.898145
vt 0.238442 0.068728
vt 0.228570 0.132948
vt 0.159756 0.970612
vt 0.161809 0.898145
vt 0.260966 0.121056
vt 0.247680 0.177345
vt 0.133187 0.952237
vt 0.139267 0.882554
vt 0.280121 0.187656
vt 0.263932 0.233852
vt 0.035779 0.539554
vt 0.056622 0.532417
vt 0.108160 0.916193
vt 0.118033 0.851973
vt 0.895324 0.081694
vt 0.895324 0.148139
vt 0.858367 0.148140
vt 0.858367 0.081694
vt 0.599672 0.406005
vt 0.599672 0.313627
vt 0.636628 0.313627
vt 0.636628 0.406005
vt 0.710541 0.247027
vt 0.710541 0.339405
vt 0.673585 0.339405
vt 0.673585 0.247027
vt 0.747498 0.655418
vt 0.747498 0.711925
vt 0.710541 0.711925
vt 0.710541 0.655418
vt 0.599672 0.226610
vt 0.636628 0.226610
vt 0.710541 0.433592
vt 0.673585 0.433592
vt 0.747498 0.588973
vt 0.710541 0.588973
vt 0.747498 0.138201
vt 0.747498 0.204647
vt 0.710541 0.204647
vt 0.710541 0.138201
vt 0.710541 0.525970
vt 0.673585 0.525970
vt 0.747498 0.515143
vt 0.710541 0.515143
vt 0.747498 0.081694
vt 0.710541 0.081694
vt 0.710541 0.612988
vt 0.673585 0.612988
vt 0.747498 0.436766
vt 0.710541 0.436766
vt 0.821411 0.148139
vt 0.821411 0.081694
vt 0.710541 0.691302
vt 0.673585 0.691302
vt 0.747498 0.356853
vt 0.710541 0.356853
vt 0.821411 0.221969
vt 0.858367 0.221969
vt 0.710541 0.757903
vt 0.673585 0.757903
vt 0.747498 0.278476
vt 0.710541 0.278476
vt 0.821411 0.300347
vt 0.858367 0.300347
vt 0.673585 0.081694
vt 0.673585 0.160009
vt 0.636628 0.160009
vt 0.636628 0.081694
vt 0.821411 0.380259
vt 0.858367 0.380259
vt 0.636628 0.247027
vt 0.821411 0.458637
vt 0.858367 0.458637
vt 0.636628 0.339405
vt 0.821411 0.532466
vt 0.858367 0.532466
vt 0.636628 0.433592
vt 0.821411 0.598912
vt 0.858367 0.598912
vt 0.636628 0.525970
vt 0.821411 0.655418
vt 0.858367 0.655418
vt 0.636628 0.612988
vt 0.784454 0.148139
vt 0.784454 0.081694
vt 0.636628 0.691303
vt 0.784454 0.221969
vt 0.636628 0.757903
vt 0.784454 0.300347
vt 0.747498 0.691303
vt 0.747498 0.612988
vt 0.784454 0.612988
vt 0.784454 0.691303
vt 0.784454 0.380260
vt 0.747498 0.525970
vt 0.784454 0.525970
vt 0.784454 0.458637
vt 0.747498 0.433592
vt 0.784454 0.433592
vt 0.784454 0.532467
vt 0.747498 0.339405
vt 0.784454 0.339405
vt 0.784454 0.598912
vt 0.747498 0.247027
vt 0.784454 0.247027
vt 0.784454 0.655419
vt 0.747498 0.160009
vt 0.784454 0.160009
vt 0.895324 0.532467
vt 0.895324 0.598912
vt 0.895324 0.458637
vt 0.599672 0.824503
vt 0.599672 0.757903
vt 0.636628 0.824504
vt 0.895324 0.380260
vt 0.599672 0.679588
vt 0.636628 0.679588
vt 0.599672 0.148295
vt 0.636628 0.148295
vt 0.895324 0.300347
vt 0.599672 0.592570
vt 0.636628 0.592570
vt 0.599672 0.081694
vt 0.895324 0.221969
vt 0.599672 0.500192
vt 0.636628 0.500192
vt 0.710541 0.160009
vn 0.000000 -1.000000 0.000000
vn 0.000000 1.000000 0.000000
vn -0.000600 -0.000000 1.000000
vn -1.000000 -0.000000 -0.000600
vn 0.000600 0.000000 -1.000000
vn -0.000000 -0.881900 -0.471400
vn -0.000000 0.881900 -0.471400
vn -0.000000 -0.773000 -0.634400
vn -0.000000 0.995200 0.098000
vn 0.000000 0.290300 0.956900
vn 0.000000 -0.773000 0.634400
vn 0.000000 0.995200 -0.098000
vn -0.000000 0.956900 -0.290300
vn 0.000000 -0.471400 0.881900
vn 0.000000 0.881900 0.471400
vn 0.000000 0.098000 0.995200
vn -0.000000 -0.995200 0.098000
vn -0.000000 0.773000 -0.634400
vn 0.000000 -0.634400 0.773000
vn 0.000000 0.773000 0.634400
vn -0.000000 -0.995200 -0.098000
vn -0.000000 -0.956900 0.290300
vn -0.000000 -0.098000 0.995200
vn 0.000000 -0.290300 0.956900
vn 0.000000 0.290300 -0.956900
vn 0.000000 0.956900 0.290300
vn -0.000000 -0.290300 -0.956900
vn 0.000000 -0.098000 -0.995200
vn -0.000000 -0.956900 -0.290300
vn 0.000000 0.098000 -0.995200
vn 0.000000 -0.881900 0.471400
vn 0.000000 -0.471400 -0.881900
vn -0.000000 0.634400 -0.773000
vn -0.000000 -0.634400 -0.773000
vn 0.000000 0.471400 0.881900
vn 0.000000 0.471400 -0.881900
vn 0.000000 0.634400 0.773000
vn 1.000000 -0.000000 0.000600
vn 1.000000 0.000000 0.000000
vn -1.000000 0.000000 -0.000000
usemtl door_wood.001
s off
f 129/1/1 130/2/1 131/3/1 132/4/1
f 133/1/2 136/2/2 135/3/2 134/4/2
f 130/1/3 134/2/3 135/3/3 131/4/3
f 131/5/4 135/6/4 168/7/4 162/8/4 158/9/4 154/10/4 152/11/4 148/12/4 144/13/4 142/14/4 170/15/4 176/16/4 182/17/4 180/18/4 186/19/4 190/20/4 188/21/4 196/22/4 200/23/4 136/24/4 132/25/4
f 133/1/5 129/2/5 132/3/5 136/4/5
f 146/1/6 145/2/6 149/3/6 150/4/6
f 148/1/7 147/2/7 143/3/7 144/4/7
f 150/1/8 149/2/8 155/3/8 156/4/8
f 170/1/9 169/2/9 175/3/9 176/4/9
f 188/1/10 187/2/10 195/3/10 196/4/10
f 184/1/11 183/2/11 177/3/11 178/4/11
f 142/1/12 141/2/12 169/3/12 170/4/12
f 144/1/13 143/2/13 141/3/13 142/4/13
f 192/1/14 191/2/14 193/3/14 194/4/14
f 182/1/15 181/2/15 179/3/15 180/4/15
f 196/1/16 195/2/16 199/3/16 200/4/16
f 172/1/17 171/2/17 137/3/17 138/4/17
f 152/1/18 151/2/18 147/3/18 148/4/18
f 194/1/19 193/2/19 183/3/19 184/4/19
f 180/1/20 179/2/20 185/3/20 186/4/20
f 138/1/21 137/2/21 139/3/21 140/4/21
f 174/1/22 173/2/22 171/3/22 172/4/22
f 200/1/23 199/2/23 197/3/23 198/4/23
f 198/1/24 197/2/24 191/3/24 192/4/24
f 162/1/25 161/2/25 157/3/25 158/4/25
f 136/5/4 200/26/4 198/27/4 192/28/4 194/29/4 184/30/4 178/31/4 174/32/4 172/33/4 138/34/4 140/35/4 146/36/4 150/37/4 156/38/4 160/39/4 164/40/4 166/41/4 168/42/4 135/43/4
f 176/1/26 175/2/26 181/3/26 182/4/26
f 164/1/27 163/2/27 165/3/27 166/4/27
f 166/1/28 165/2/28 167/3/28 168/4/28
f 140/1/29 139/2/29 145/3/29 146/4/29
f 168/1/30 167/2/30 161/3/30 162/4/30
f 178/1/31 177/2/31 173/3/31 174/4/31
f 160/1/32 159/2/32 163/3/32 164/4/32
f 154/1/33 153/2/33 151/3/33 152/4/33
f 156/1/34 155/2/34 159/3/34 160/4/34
f 190/1/35 189/2/35 187/3/35 188/4/35
f 158/1/36 157/2/36 153/3/36 154/4/36
f 186/1/37 185/2/37 189/3/37 190/4/37
f 133/5/38 134/26/38 167/27/38 165/28/38 163/29/38 159/30/38 155/31/38 149/32/38 145/33/38 139/34/38 137/35/38 171/36/38 173/37/38 177/38/38 183/39/38 193/40/38 191/41/38 197/42/38 199/43/38
f 130/5/38 129/6/38 133/7/38 199/8/38 195/9/38 187/10/38 189/11/38 185/12/38 179/13/38 181/14/38 175/15/38 169/16/38 141/17/38 143/18/38 147/19/38 151/20/38 153/21/38 157/22/38 161/23/38 167/24/38 134/25/38
usemtl dark_wood_door
f 80/44/39 81/45/39 113/46/39 112/47/39
f 67/48/39 68/49/39 100/50/39 99/51/39
f 16/52/40 48/53/40 49/54/40 17/55/40
f 3/56/40 35/57/40 36/58/40 4/59/40
f 30/60/40 62/61/40 63/62/40 31/63/40
f 17/55/40 49/54/40 50/64/40 18/65/40
f 4/59/40 36/58/40 37/66/40 5/67/40
f 31/63/40 63/62/40 64/68/40 32/69/40
f 18/65/40 50/64/40 51/70/40 19/71/40
f 5/67/40 37/66/40 38/72/40 6/73/40
f 32/69/40 64/68/40 34/74/40 1/75/40
f 19/71/40 51/70/40 52/76/40 20/77/40
f 6/73/40 38/72/40 39/78/40 7/79/40
f 20/77/40 52/76/40 53/80/40 21/81/40
f 7/79/40 39/78/40 40/82/40 8/83/40
f 21/81/40 53/80/40 54/84/40 22/85/40
f 8/83/40 40/82/40 41/86/40 9/87/40
f 22/85/40 54/84/40 55/88/40 23/89/40
f 9/87/40 41/86/40 42/90/40 10/91/40
f 23/89/40 55/88/40 56/92/40 24/93/40
f 10/91/40 42/90/40 43/94/40 11/95/40
f 24/93/40 56/92/40 57/96/40 25/97/40
f 11/95/40 43/94/40 44/98/40 12/99/40
f 25/97/40 57/96/40 58/100/40 26/101/40
f 12/99/40 44/98/40 45/102/40 13/103/40
f 26/101/40 58/100/40 59/104/40 27/105/40
f 13/103/40 45/102/40 46/106/40 14/107/40
f 27/105/40 59/104/40 60/108/40 28/109/40
f 14/107/40 46/106/40 47/110/40 15/111/40
f 1/75/40 34/74/40 33/112/40 2/113/40
f 28/109/40 60/108/40 61/114/40 29/115/40
f 15/111/40 47/110/40 48/53/40 16/52/40
f 2/113/40 33/112/40 35/57/40 3/56/40
f 29/115/40 61/114/40 62/61/40 30/60/40
f 94/116/39 95/117/39 127/118/39 126/119/39
f 81/45/39 82/85/39 114/120/39 113/46/39
f 68/49/39 69/121/39 101/122/39 100/50/39
f 95/117/39 96/123/39 128/124/39 127/118/39
f 82/85/39 83/89/39 115/125/39 114/120/39
f 69/121/39 70/126/39 102/127/39 101/122/39
f 96/123/39 66/128/39 98/129/39 128/124/39
f 83/89/39 84/130/39 116/131/39 115/125/39
f 70/126/39 71/132/39 103/133/39 102/127/39
f 84/130/39 85/134/39 117/135/39 116/131/39
f 71/132/39 72/136/39 104/137/39 103/133/39
f 85/134/39 86/138/39 118/139/39 117/135/39
f 72/136/39 73/140/39 105/141/39 104/137/39
f 86/138/39 87/142/39 119/143/39 118/139/39
f 73/140/39 74/144/39 106/145/39 105/141/39
f 87/142/39 88/146/39 120/147/39 119/143/39
f 74/144/39 75/148/39 107/149/39 106/145/39
f 88/146/39 89/150/39 121/151/39 120/147/39
f 75/148/39 76/152/39 108/153/39 107/149/39
f 89/150/39 90/154/39 122/155/39 121/151/39
f 76/152/39 77/156/39 109/157/39 108/153/39
f 90/154/39 91/158/39 123/159/39 122/155/39
f 77/156/39 78/160/39 110/161/39 109/157/39
f 91/158/39 92/162/39 124/163/39 123/159/39
f 78/160/39 79/164/39 111/165/39 110/161/39
f 66/128/39 65/166/39 97/167/39 98/129/39
f 92/162/39 93/168/39 125/169/39 124/163/39
f 79/164/39 80/44/39 112/47/39 111/165/39
f 65/166/39 67/48/39 99/51/39 97/167/39
f 93/168/39 94/116/39 126/119/39 125/169/39
f 58/170/9 57/171/9 121/172/9 122/173/9
f 31/174/27 32/175/27 96/176/27 95/177/27
f 5/178/18 6/179/18 70/180/18 69/181/18
f 59/182/26 58/183/26 122/184/26 123/185/26
f 32/175/28 1/186/28 66/187/28 96/176/28
f 6/179/7 7/188/7 71/189/7 70/180/7
f 60/190/15 59/182/15 123/185/15 124/191/15
f 33/192/23 34/193/23 98/194/23 97/195/23
f 7/188/13 8/196/13 72/197/13 71/189/13
f 61/198/20 60/190/20 124/191/20 125/199/20
f 35/200/24 33/192/24 97/195/24 99/201/24
f 8/196/12 9/202/12 73/203/12 72/197/12
f 62/204/37 61/198/37 125/199/37 126/205/37
f 36/206/14 35/207/14 99/173/14 100/172/14
f 9/202/9 10/208/9 74/209/9 73/203/9
f 63/210/35 62/204/35 126/205/35 127/211/35
f 37/212/19 36/206/19 100/172/19 101/213/19
f 10/208/26 11/214/26 75/215/26 74/209/26
f 64/216/10 63/210/10 127/211/10 128/217/10
f 38/218/11 37/212/11 101/213/11 102/219/11
f 11/220/15 12/221/15 76/222/15 75/223/15
f 34/193/16 64/216/16 128/217/16 98/194/16
f 39/224/31 38/218/31 102/219/31 103/225/31
f 12/221/20 13/181/20 77/226/20 76/222/20
f 40/227/22 39/224/22 103/225/22 104/228/22
f 13/181/37 14/180/37 78/229/37 77/226/37
f 41/230/17 40/227/17 104/228/17 105/231/17
f 14/180/35 15/189/35 79/232/35 78/229/35
f 42/233/21 41/230/21 105/231/21 106/234/21
f 15/189/10 16/197/10 80/235/10 79/232/10
f 43/236/29 42/233/29 106/234/29 107/237/29
f 16/197/16 17/203/16 81/238/16 80/235/16
f 44/239/6 43/240/6 107/207/6 108/206/6
f 17/203/23 18/209/23 82/241/23 81/238/23
f 45/242/8 44/239/8 108/206/8 109/212/8
f 18/209/24 19/215/24 83/243/24 82/241/24
f 46/244/34 45/242/34 109/212/34 110/218/34
f 19/245/14 20/246/14 84/247/14 83/248/14
f 47/249/32 46/244/32 110/218/32 111/224/32
f 20/246/19 21/250/19 85/251/19 84/247/19
f 48/252/27 47/249/27 111/224/27 112/227/27
f 21/250/11 22/253/11 86/254/11 85/251/11
f 49/255/28 48/252/28 112/227/28 113/230/28
f 22/253/31 23/256/31 87/257/31 86/254/31
f 50/258/30 49/255/30 113/230/30 114/233/30
f 23/256/22 24/259/22 88/260/22 87/257/22
f 51/261/25 50/258/25 114/233/25 115/236/25
f 24/259/17 25/262/17 89/263/17 88/260/17
f 52/264/36 51/265/36 115/234/36 116/231/36
f 25/262/21 26/200/21 90/240/21 89/263/21
f 53/266/33 52/264/33 116/231/33 117/228/33
f 26/267/29 27/268/29 91/243/29 90/269/29
f 54/270/18 53/266/18 117/228/18 118/225/18
f 27/268/6 28/271/6 92/272/6 91/243/6
f 1/186/30 2/273/30 65/274/30 66/187/30
f 55/275/7 54/270/7 118/225/7 119/219/7
f 28/271/8 29/276/8 93/277/8 92/272/8
f 2/273/25 3/278/25 67/223/25 65/274/25
f 56/279/13 55/275/13 119/219/13 120/213/13
f 29/276/34 30/280/34 94/281/34 93/277/34
f 3/201/36 4/282/36 68/221/36 67/220/36
f 57/171/12 56/279/12 120/213/12 121/172/12
f 30/280/32 31/174/32 95/177/32 94/281/32
f 4/282/33 5/178/33 69/181/33 68/221/33
