# Blender v2.76 (sub 0) OBJ File: 'door_h20.blend'
# www.blender.org
mtllib door_h20.mtl
o door_h20_Plane.040
v -0.083698 -1.059162 0.966770
v -0.083698 -1.059163 -0.966770
v -0.083697 1.059163 0.966770
v -0.083697 1.046005 -0.966770
v -0.083023 -1.059163 0.911697
v -0.083023 -1.059163 -0.915195
v -0.083023 1.040182 -0.915195
v -0.083023 1.053341 0.911697
v -0.083697 1.007185 0.966770
v -0.083698 0.994026 -0.966770
v -0.083023 0.989513 0.911697
v -0.083023 0.976355 -0.915195
v 0.083698 1.007185 0.966770
v 0.083697 -1.059162 0.966770
v 0.083023 -1.059163 -0.915195
v 0.083697 -1.059163 -0.966770
v 0.083698 0.994026 -0.966770
v 0.083698 1.046005 -0.966770
v 0.083023 1.053341 0.911697
v 0.083698 1.059163 0.966770
v 0.083023 -1.059163 0.911697
v 0.083023 1.040182 -0.915195
v 0.083023 0.989513 0.911697
v 0.083023 0.976355 -0.915195
vn -0.999900 0.000000 0.013100
vn -0.999900 0.000000 -0.012200
vn -1.000000 0.000000 -0.000000
vn 0.999900 0.000000 0.013100
vn 0.999900 0.000000 -0.012200
vn 1.000000 0.000000 0.000000
vn 0.000000 -1.000000 0.000000
vn 0.000000 0.000000 -1.000000
vn 0.000000 0.993700 0.112200
vn 0.000000 -0.000000 1.000000
vn 0.000000 0.994500 -0.105100
vn 0.000000 1.000000 -0.007200
vn 0.000000 -1.000000 0.007200
usemtl painted_wood_white
s off
f 12//1 7//1 4//1 10//1
f 9//2 3//2 8//2 11//2
f 11//3 8//3 7//3 12//3
f 24//4 17//4 18//4 22//4
f 1//2 9//2 11//2 5//2
f 6//1 12//1 10//1 2//1
f 13//5 23//5 19//5 20//5
f 23//6 24//6 22//6 19//6
f 14//5 21//5 23//5 13//5
f 15//4 16//4 17//4 24//4
f 1//7 5//7 21//7 14//7
f 2//8 10//8 17//8 16//8
f 6//7 2//7 16//7 15//7
f 5//8 11//8 23//8 21//8
f 10//8 4//8 18//8 17//8
f 4//9 7//9 22//9 18//9
f 12//10 6//10 15//10 24//10
f 8//11 3//11 20//11 19//11
f 3//10 9//10 13//10 20//10
f 9//10 1//10 14//10 13//10
f 7//12 8//12 19//12 22//12
f 11//13 12//13 24//13 23//13
