# Blender v2.76 (sub 0) OBJ File: 'glass_door_1.blend'
# www.blender.org
mtllib door_extension.mtl
o door_extension_Cube.015
v -0.253153 -1.020137 -0.019704
v 0.253294 -1.020137 -0.017633
v 0.253153 -1.020137 0.019704
v -0.253294 -1.020137 0.017633
v -0.253153 1.020137 -0.019704
v 0.253294 1.020137 -0.017633
v 0.253153 1.020137 0.019704
v -0.253294 1.020137 0.017633
vn 0.000000 -1.000000 0.000000
vn 0.000000 1.000000 0.000000
vn 0.004100 0.000000 -1.000000
vn 1.000000 -0.000000 0.003800
vn -0.004100 -0.000000 1.000000
vn -1.000000 0.000000 -0.003800
usemtl light_wood_mat
s off
f 1//1 2//1 3//1 4//1
f 5//2 8//2 7//2 6//2
f 1//3 5//3 6//3 2//3
f 2//4 6//4 7//4 3//4
f 3//5 7//5 8//5 4//5
f 5//6 1//6 4//6 8//6
