# Blender v2.76 (sub 0) OBJ File: 'simple_door.blend'
# www.blender.org
mtllib simple_door.mtl
o gf_toilets_Cube.111
v -0.019586 -1.020137 0.451081
v -0.017751 -1.020137 -0.451157
v 0.019586 -1.020137 -0.451081
v 0.017751 -1.020137 0.451157
v -0.019586 1.020137 0.451081
v -0.017751 1.020137 -0.451157
v 0.019586 1.020137 -0.451081
v 0.017751 1.020137 0.451157
vn 0.000000 -1.000000 0.000000
vn 0.000000 1.000000 0.000000
vn -1.000000 0.000000 -0.002000
vn 0.002000 -0.000000 -1.000000
vn 1.000000 -0.000000 0.002000
vn -0.002000 0.000000 1.000000
usemtl light_wood_mat
s off
f 1//1 2//1 3//1 4//1
f 5//2 8//2 7//2 6//2
f 1//3 5//3 6//3 2//3
f 2//4 6//4 7//4 3//4
f 3//5 7//5 8//5 4//5
f 5//6 1//6 4//6 8//6
